<?xml version="1.0" standalone="no"?>
<!DOCTYPE svg PUBLIC "-//W3C//DTD SVG 20010904//EN"
 "http://www.w3.org/TR/2001/REC-SVG-20010904/DTD/svg10.dtd">
<svg version="1.0" xmlns="http://www.w3.org/2000/svg"
 width="512.000000pt" height="512.000000pt" viewBox="0 0 512.000000 512.000000"
 preserveAspectRatio="xMidYMid meet">
<metadata>
Created by potrace 1.11, written by Peter Selinger 2001-2013
</metadata>
<g transform="translate(0.000000,512.000000) scale(0.100000,-0.100000)"
fill="#000000" stroke="none">
<path d="M0 2560 l0 -2560 798 0 798 0 177 584 c98 321 181 593 184 604 4 18
-1 21 -44 27 -203 26 -400 102 -553 214 -252 184 -366 350 -431 631 -29 126
-36 345 -15 490 73 501 318 847 804 1137 287 170 622 270 973 289 l116 7 153
556 c84 306 155 562 158 569 3 9 -312 12 -1557 12 l-1561 0 0 -2560z"/>
<path d="M3322 5043 c-12 -43 -75 -294 -142 -558 -67 -264 -123 -487 -126
-496 -4 -14 8 -17 73 -23 208 -18 378 -63 539 -141 282 -137 444 -326 519
-608 93 -345 27 -772 -169 -1105 -77 -130 -166 -243 -283 -359 -336 -333 -715
-504 -1212 -546 l-145 -12 -148 -590 c-81 -325 -148 -593 -148 -597 0 -5 684
-8 1520 -8 l1520 0 0 2560 0 2560 -889 0 -889 0 -20 -77z"/>
<path d="M2615 3829 c-404 -51 -760 -338 -997 -804 -75 -148 -123 -271 -157
-407 -48 -186 -56 -250 -56 -453 0 -216 11 -273 75 -410 66 -142 170 -244 322
-315 78 -36 200 -73 209 -62 6 7 739 2441 739 2455 0 9 -42 7 -135 -4z"/>
<path d="M3006 3813 c-3 -10 -138 -567 -300 -1238 l-293 -1220 44 -3 c62 -4
206 24 291 59 133 53 304 177 427 311 206 224 418 656 485 987 44 217 49 437
15 599 -63 300 -264 468 -617 517 -39 5 -47 3 -52 -12z"/>
</g>
</svg>
